# xmcd
#
# Track frame offsets:
#	150
#	20444
#	37174
#	51236
#	65108
#	83703
#	97071
#	113470
#	129093
#	143208
#	157372
#	171269
#	188299
#	205856
#	222075
#	239091
#	261103
#	281577
#
# Disc length: 3968 seconds
#
# Revision: 1
# Processed by: cddbd v1.5.2PL0 Copyright (c) Steve Scherf et al.
# Submitted via: audiograbber 1.83.01
#
DISCID=0a0f7e12
DTITLE=Various Artist - Now That's What I Call Country Vol. 4
DYEAR=2011
DGENRE=Country
TTITLE0=Lady Antebellum - Hello World
TTITLE1=The Band Perry - If I Die Young
TTITLE2=Blake Shelton - Who Are You When Im Not Looking
TTITLE3=Thompson Sqaure - Are You Gonna Kiss Me Or Not
TTITLE4=Sugarland - Stuck Like Glue
TTITLE5=Carrie Underwood - Undo It
TTITLE6=Keith Urban - Put You In A Song
TTITLE7=Easton Corbin - Roll With It
TTITLE8=Miranda Lambert - Only Prettier
TTITLE9=Eric Church - Smoke A Little Smoke
TTITLE10=Chris Young - Voices
TTITLE11=Luke Bryan - Someone Else Calling You Baby
TTITLE12=Darius Rucker - Come Back Song
TTITLE13=Jerrod Nieman - What Do You Want
TTITLE14=Billy Currington - Let Me Down Easy
TTITLE15=Taylor Swift - Back To December
TTITLE16=Zac Brown Band - Colder Weather
TTITLE17=George Strait - The Breath You Take
EXTD=
EXTT0=
EXTT1=
EXTT2=
EXTT3=
EXTT4=
EXTT5=
EXTT6=
EXTT7=
EXTT8=
EXTT9=
EXTT10=
EXTT11=
EXTT12=
EXTT13=
EXTT14=
EXTT15=
EXTT16=
EXTT17=
PLAYORDER=
